<svg width="1499" height="254" viewBox="0 0 1499 254" fill="none" xmlns="http://www.w3.org/2000/svg">
<path d="M63.3951 146.253L70.2726 167.541H86.9749V230.093C64.3776 226.49 50.2953 212.08 41.7803 199.963C29.3354 180.968 22.1305 154.441 22.1305 126.931C22.1305 99.0938 29.3354 72.5666 42.1078 53.8992C51.6053 39.4893 68.9626 23.7695 98.1099 23.7695V1.82717C82.0625 1.82717 67.6526 4.44715 54.5527 11.9796C42.4353 19.1845 32.2829 29.0094 23.768 41.4543C8.70312 64.3791 0.188196 94.5089 0.188196 126.931C0.188196 159.026 8.70312 189.483 23.768 212.08C32.2829 224.525 42.4353 234.678 54.5527 241.555C64.3776 247.123 75.185 252.035 86.9749 253.345L97.7824 254H107.935V146.253H63.3951ZM231.621 3.79215H143.852V146.581H127.477L134.682 167.868H143.852V254H231.621V233.04H164.812V167.541H231.621V146.581H164.812V24.752H231.621V3.79215ZM272.535 84.029V254H251.248V0.517181L343.275 169.833V3.46466H364.235V253.018L272.535 84.029ZM458.316 200.29C458.316 218.303 446.198 232.713 431.789 232.713C417.051 232.713 405.261 218.303 405.261 200.29V4.44715H383.974V200.29C383.974 214.373 388.886 227.8 397.401 237.625C406.571 248.105 418.689 254 431.789 254C444.888 254 457.006 248.105 465.848 237.625C474.691 227.8 479.276 214.373 479.276 200.29V4.44715H458.316V200.29ZM498.79 3.46466V254H519.75V3.46466H498.79ZM560.695 84.029V254H539.407V0.517181L631.434 169.833V3.46466H652.394V253.018L560.695 84.029ZM776.277 3.79215H688.508V146.581H672.133L679.338 167.868H688.508V254H776.277V233.04H709.468V167.541H776.277V146.581H709.468V24.752H776.277V3.79215ZM861.467 3.13716V24.4245H893.89V254H915.177V24.4245H948.254V3.13716H861.467ZM989.255 254V192.758L1024.62 254H1049.51L1048.86 253.345L1002.36 173.763C1006.61 172.453 1010.87 170.488 1014.8 168.523C1023.31 163.611 1030.52 157.061 1036.41 148.546C1046.89 133.481 1052.46 113.504 1052.46 91.8889C1052.46 69.2916 1046.24 48.0043 1034.78 32.2844C1028.23 23.1145 1020.37 16.2371 1011.53 11.3246C1001.7 6.08464 990.565 3.46466 978.448 3.46466H967.968V254H989.255ZM989.255 25.407C1000.72 28.0269 1010.22 34.2494 1017.42 44.7293C1026.26 56.8467 1031.17 73.8766 1031.17 91.8889C1031.17 120.709 1018.07 151.821 989.255 154.441V25.407ZM1176.37 3.79215H1088.6V146.581H1072.23L1079.43 167.868H1088.6V254H1176.37V233.04H1109.56V167.541H1176.37V146.581H1109.56V24.752H1176.37V3.79215ZM1203.86 254H1225.48L1233.99 212.08H1271.98L1279.51 254H1301.13L1255.61 1.49968L1216.63 190.793H1196L1203.21 212.08H1212.38L1203.86 254ZM1268.05 190.793H1238.58L1254.3 113.831L1268.05 190.793ZM1320.73 3.13716V24.4245H1353.15V254H1374.44V24.4245H1407.52V3.13716H1320.73ZM1428.21 232.058C1440.99 232.058 1451.14 230.093 1459 226.49C1464.89 223.543 1469.15 219.94 1471.77 214.7C1476.03 206.185 1474.72 195.378 1473.08 187.846C1470.79 178.021 1465.88 167.213 1459.33 158.371C1443.93 136.756 1433.78 114.159 1429.52 93.1989C1425.27 71.9116 1426.9 52.9167 1434.76 37.5244C1445.9 15.9095 1467.84 3.79215 1496.33 3.79215V26.062C1476.03 26.062 1461.62 33.2669 1454.41 47.6768C1448.85 58.4842 1447.54 72.5666 1450.81 88.9414C1454.74 106.954 1463.58 126.276 1477.34 145.271C1485.2 156.733 1491.42 169.833 1494.37 182.606C1498.3 198.653 1496.99 213.39 1491.09 224.853C1486.18 234.35 1478.65 241.555 1468.17 246.468C1457.69 251.38 1444.26 254 1428.21 254V232.058Z" fill="black"/>
</svg>
